<?xml version="1.0" encoding="UTF-8"?>
<svg width="21px" height="20px" viewBox="0 0 21 20" version="1.1" xmlns="http://www.w3.org/2000/svg" xmlns:xlink="http://www.w3.org/1999/xlink">
    <!-- Generator: Sketch 48.2 (47327) - http://www.bohemiancoding.com/sketch -->
    <title>Group 2</title>
    <desc>Created with Sketch.</desc>
    <defs></defs>
    <g id="Top-Bars-/-#04" stroke="none" stroke-width="1" fill="none" fill-rule="evenodd" transform="translate(-1256.000000, -20.000000)">
        <g id="Group-2" transform="translate(1257.000000, 21.000000)">
            <path d="M18.8558742,4.13995099 L10.4490095,0.131704599 C10.0807838,-0.043901533 9.62711089,-0.043901533 9.25888511,0.131704599 L0.856334491,4.13995099 C0.488217849,4.31552682 0.261417614,4.63994929 0.261327582,4.99106833 L0.261327582,13.0089317 C0.261417614,13.3600507 0.488217849,13.6844732 0.856334491,13.860049 L9.26109744,17.8682954 C9.62932322,18.0439015 10.0829961,18.0439015 10.4512219,17.8682954 L18.8559848,13.860049 C19.2241015,13.6844732 19.4509017,13.3600507 19.4509917,13.0089317 L19.4509917,4.99106833 C19.4508789,4.63993045 19.2240334,4.31550361 18.8558742,4.13995099 Z" id="Shape" stroke="#FFFFFF"></path>
            <g id="Group" transform="translate(4.407460, 4.503058)" fill="#FFFFFF" fill-rule="nonzero">
                <path d="M0.00774316482,0.456487622 C0.189006966,0.307736251 0.369680812,0.158832596 0.549764702,0.00977665643 C0.731028504,0.159015337 0.911886711,0.308406302 1.09233932,0.457949552 C0.912255433,0.607188232 0.731765948,0.756274629 0.550870869,0.90520874 C0.369680812,0.75597006 0.188638244,0.606396354 0.00774316482,0.456487622 M1.64022354,0.457035845 C1.82030743,0.307797165 2.00079692,0.158710768 2.181692,0.00977665643 C2.36236584,0.158528027 2.54263409,0.307431682 2.72249675,0.456487622 C2.54241286,0.605726302 2.36192338,0.754812699 2.1810283,0.903746811 C2.0004282,0.75499544 1.82015994,0.606091785 1.64022354,0.457035845 M8.17534404,0.455573915 C8.35542793,0.306335235 8.53569618,0.15743158 8.71614879,0.00886295022 C8.89741259,0.158101631 9.0782708,0.307492596 9.25872341,0.457035845 C9.07863952,0.606274526 8.89837127,0.755360922 8.71791866,0.904295034 C8.53724481,0.75450813 8.3563866,0.604934424 8.17534404,0.455573915 M9.80428468,0.458406405 C9.98495853,0.308680414 10.1662223,0.158954423 10.3480761,0.0092284327 C10.5287499,0.157979803 10.7092394,0.3070662 10.8895445,0.456487622 L10.3457531,0.905665594 C10.1650793,0.756609654 9.9845898,0.607523258 9.80428468,0.458406405 M0.824315204,1.13052869 C1.00498905,0.981777321 1.18547853,0.832873666 1.36578366,0.683817726 C1.5464575,0.832569097 1.72672576,0.981472752 1.90658841,1.13052869 C1.72650452,1.27976737 1.54601504,1.42885377 1.36511996,1.57778788 C1.18444611,1.4289756 1.00417786,1.2798892 0.824315204,1.13052869 M2.46144148,1.1314424 C2.64093542,0.983665647 2.81965503,0.8354625 2.99760034,0.686832957 C3.17591436,0.835584327 3.35463398,0.983848388 3.53375919,1.13162514 C3.35485521,1.27891458 3.17613559,1.42638676 2.99760034,1.57404168 C2.81869636,1.42663042 2.63997674,1.27909732 2.46144148,1.1314424 M7.36463468,1.12851854 C7.5436124,0.98022402 7.72303259,0.832477726 7.90145723,0.683178132 C8.08036121,0.831807675 8.25967079,0.980437218 8.43938596,1.12906676 C8.25967079,1.27684351 8.08036121,1.42486392 7.90145723,1.57312798 C7.72369629,1.4241025 7.5436124,1.27681306 7.36463468,1.12851854 M8.99125237,1.12952361 C9.17133627,0.980284934 9.35160452,0.831381279 9.53205713,0.682812649 C9.71273098,0.83156402 9.89322046,0.980650416 10.0735256,1.13007184 C9.89344169,1.27931052 9.71317344,1.42839692 9.53272083,1.57733103 C9.35263694,1.42748321 9.17133627,1.27873184 8.99125237,1.12952361 M0.00774316482,1.80493524 L0.550870869,1.3563055 C0.731544715,1.50554418 0.911812966,1.65463057 1.09167562,1.80356468 C0.911001777,1.95329068 0.730143571,2.10268164 0.549101003,2.25173758 C0.368500901,2.1029253 0.188048289,1.95399118 0.00774316482,1.80493524 M1.63967046,1.80447839 C1.82034431,1.65572702 2.00101815,1.50682336 2.181692,1.35776743 C2.36236584,1.5065188 2.54263409,1.65542245 2.72249675,1.80447839 C2.54241286,1.95371707 2.36192338,2.10280347 2.1810283,2.25173758 C2.0004282,2.1029253 1.81997558,1.9538389 1.63967046,1.80447839 M3.2739207,1.80201138 C3.45223473,1.65423463 3.63076999,1.50661017 3.80952648,1.35913798 C3.98961037,1.50788936 4.16947302,1.65664073 4.34911445,1.8053921 C4.17080042,1.95268154 3.99226517,2.10000144 3.81350867,2.24735179 C3.63342478,2.09908773 3.45356213,1.95064093 3.2739207,1.80201138 M6.55049621,1.80201138 C6.72881023,1.65423463 6.90716113,1.50661017 7.0855489,1.35913798 C7.26504283,1.50691474 7.44416804,1.65487423 7.62292453,1.80301646 C7.44339373,1.94984905 7.26563279,2.09814357 7.08610198,2.24497615 C6.9087835,2.09668164 6.72881023,1.94984905 6.55049621,1.80201138 M8.17534404,1.80347331 C8.35601788,1.65374732 8.53687609,1.50435636 8.71791866,1.35530042 C8.8985925,1.50405179 9.07908199,1.65313819 9.25938711,1.80255961 C9.07871327,1.9522856 8.89785506,2.10182885 8.71681249,2.25118936 C8.5367286,2.10152428 8.35542793,1.95277291 8.17534404,1.80347331 M9.80693948,1.80347331 C9.98702337,1.65423463 10.1672916,1.50533098 10.3477442,1.35676235 C10.5284181,1.50551372 10.7089076,1.65460012 10.8892127,1.80402154 C10.7091288,1.95326022 10.5288605,2.10234661 10.3484079,2.25128073 C10.1685453,2.10152428 9.98735522,1.95277291 9.80693948,1.80347331 M4.90463122,1.84924999 L5.4396839,1.4072903 C5.62773219,1.55119903 5.81213013,1.69803162 5.99166094,1.84924999 C5.81157705,1.99995061 5.6275847,2.14708776 5.4396839,2.29066146 C5.26129614,2.14337202 5.08294524,1.99623487 4.90463122,1.84924999 M0.82608507,2.47888494 C1.00616896,2.33110819 1.18643721,2.1831487 1.36688982,2.03500647 C1.54520385,2.18327053 1.72373911,2.33107774 1.9024956,2.47842809 C1.72359162,2.62669215 1.54465077,2.77480393 1.36567304,2.92276342 C1.1856629,2.77498667 1.00580024,2.62702718 0.82608507,2.47888494 M4.09038213,2.47605245 C4.26869615,2.32821479 4.44701017,2.18147357 4.62543481,2.03363591 C4.80374884,2.18092535 4.9818785,2.32824525 5.1598238,2.4755956 C4.98206286,2.62288504 4.80319576,2.77017448 4.62543481,2.91755529 C4.44712079,2.77050951 4.26876989,2.62334189 4.09038213,2.47605245 M5.73514095,2.47605245 C5.91212758,2.32775794 6.091769,2.18193043 6.26897686,2.03363591 C6.45193678,2.17854971 6.62682169,2.32921987 6.80745866,2.47605245 C6.62792785,2.62288504 6.44961383,2.77163641 6.27008302,2.91892585 C6.09232208,2.77063134 5.91323374,2.62389012 5.73514095,2.47605245 M8.99943801,2.47650931 C9.17719895,2.32821479 9.35551297,2.18092535 9.53327391,2.03263083 C9.71394776,2.18040758 9.89403165,2.32836707 10.0735256,2.47650931 C9.89285174,2.62428606 9.71258349,2.77224555 9.53272083,2.92038778 C9.35551297,2.77163641 9.17642463,2.62480382 8.99943801,2.47650931 M1.64199341,3.15000215 C1.82030743,3.0022254 1.99924828,2.85460094 2.17881596,2.70712875 C2.35771994,2.85588012 2.53721388,3.00447921 2.71729777,3.15292601 C2.53898375,3.30070276 2.36044849,3.44817495 2.181692,3.59534256 C2.00160811,3.44720033 1.82170858,3.29875352 1.64199341,3.15000215 M4.90573738,3.14899708 C5.08346145,3.00170764 5.26140675,2.85472276 5.43957329,2.70804246 C5.62725285,2.85149433 5.8112452,2.99863149 5.99155032,3.14945393 C5.81205639,3.30064185 5.62828528,3.44762672 5.44023699,3.59040855 C5.26184922,3.44318002 5.08368268,3.29604286 4.90573738,3.14899708 M8.18352967,3.15000215 C8.36125374,3.00271271 8.53919904,2.85588012 8.71736557,2.70950439 C8.8956796,2.85679383 9.07421486,3.00362642 9.25297135,3.15000215 C9.07399362,3.29619515 8.8956796,3.44366733 8.71736557,3.59004306 C8.54015772,3.44266225 8.36129061,3.29683474 8.18352967,3.15000215 M2.45856545,3.82395185 C2.63687947,3.6761751 2.81541473,3.5288552 2.99417122,3.38199216 C3.17189529,3.52879429 3.34965623,3.67577916 3.52745404,3.82294678 C3.34972997,3.97023622 3.17160031,4.1177084 2.99306505,4.26536332 C2.81526724,4.11807388 2.63710071,3.97093672 2.45856545,3.82395185 M7.36585146,3.82395185 C7.54416549,3.67666241 7.72270074,3.52934251 7.90145723,3.38199216 C8.07977126,3.52879429 8.25771656,3.67611419 8.43529314,3.82395185 C8.25756907,3.97124129 8.07962377,4.11856119 7.90145723,4.26591154 C7.72369629,4.11807388 7.54416549,3.97133266 7.36585146,3.82395185 M1.64343143,4.49698785 C1.82174545,4.34921109 2.00028071,4.2018912 2.1790372,4.05502815 C2.35676127,4.20231759 2.53470657,4.34963749 2.7128731,4.49698785 C2.53514903,4.64427729 2.35720373,4.79159718 2.1790372,4.93894754 C1.99991198,4.79159718 1.82137673,4.64427729 1.64343143,4.49698785 M3.2739207,4.49698785 C3.45223473,4.3496984 3.63058562,4.20256125 3.80897339,4.05557638 C3.98669746,4.20286582 4.16453215,4.35000297 4.34247745,4.49698785 C4.16549082,4.64427729 3.98772988,4.79141444 3.80919463,4.93839931 C3.63065937,4.79110987 3.45223473,4.64397272 3.2739207,4.49698785 M6.54983251,4.49698785 C6.72814653,4.34869333 6.90823042,4.20186074 7.08665506,4.05356622 C7.26563279,4.20085566 7.44394681,4.34960703 7.62281392,4.49698785 C7.44390994,4.64427729 7.26519032,4.79208449 7.08665506,4.94040947 C6.9087835,4.79211495 6.72825715,4.64528236 6.54983251,4.49698785 M8.13507958,4.49698785 C8.3180395,4.3549979 8.48130966,4.19372875 8.6776542,4.06370836 C8.84667643,4.21346481 9.03428225,4.34869333 9.20573804,4.49698785 C9.03439286,4.64427729 8.84966308,4.78023677 8.67942407,4.9288054 C8.4795398,4.8031708 8.31991998,4.63806408 8.13507958,4.49698785 M2.45856545,5.17002384 L2.99295444,4.72861237 C3.17126846,4.87645003 3.34958249,5.02319125 3.52734343,5.17102891 C3.34961936,5.31831836 3.17185842,5.46530323 2.9940606,5.61198353 C2.81574658,5.46463318 2.63724819,5.31731328 2.45856545,5.17002384 M7.36640455,5.17002384 C7.54416549,5.0227344 7.72369629,4.87590181 7.90145723,4.72806415 C8.07977126,4.87535359 8.25790092,5.02267348 8.43584622,5.17002384 C8.2568685,5.31685643 8.08087743,5.46606465 7.90024045,5.61097845 C7.72247951,5.46368901 7.54416549,5.31731328 7.36640455,5.17002384 M1.64199341,5.84397354 C1.82148734,5.69522217 2.00138687,5.54677536 2.181692,5.39863313 C2.36059598,5.54592257 2.53913123,5.69339475 2.71729777,5.84104968 C2.53780383,5.98980105 2.3583099,6.13840013 2.17881596,6.28684694 C1.99924828,6.1395575 1.82030743,5.99193303 1.64199341,5.84397354 M4.90341443,5.84497861 C5.08231841,5.69720186 5.26125926,5.5495774 5.44023699,5.40210521 C5.62968642,5.54555709 5.81423185,5.69287699 5.99387327,5.84406491 C5.81378938,5.99634928 5.62902272,6.14446105 5.43957329,6.28840024 C5.26066931,6.14056257 5.08194969,5.99275536 4.90341443,5.84497861 M8.18352967,5.84443039 C8.36129061,5.69714095 8.54015772,5.55076521 8.71736557,5.40393263 C8.89626955,5.55073476 9.07498917,5.69741506 9.25352443,5.84397354 C9.0752104,5.99077567 8.89649079,6.13760826 8.71736557,6.2844713 C8.53956776,6.13760826 8.36162246,5.99092795 8.18352967,5.84443039 M0.825531987,6.51509075 C1.00561588,6.367314 1.18569977,6.2193545 1.36578366,6.07121227 C1.54468764,6.21898902 1.72362849,6.3671008 1.90260621,6.5155476 C1.72362849,6.66283704 1.54505636,6.81079653 1.36688982,6.95942608 C1.18625285,6.81158841 1.00616896,6.66247156 0.825531987,6.51509075 M4.08750609,6.51792324 C4.26700003,6.36965918 4.4463096,6.22169968 4.62543481,6.07404476 C4.80492875,6.22182151 4.98442268,6.369781 5.16391662,6.51792324 C4.98501264,6.6661873 4.80588743,6.81445136 4.62654098,6.96271542 C4.44645709,6.81493867 4.26677879,6.66667461 4.08750609,6.51792324 M5.73160122,6.51792324 C5.91113203,6.36917187 6.091769,6.2213342 6.27074672,6.07258283 C6.45027753,6.22042049 6.62980834,6.36917187 6.80989223,6.51646131 C6.62980834,6.66521268 6.44990881,6.81411633 6.27019364,6.96317227 C6.09062596,6.81496912 5.91109515,6.66655278 5.73160122,6.51792324 M8.99888492,6.51746638 C9.17587155,6.36917187 9.35551297,6.22142557 9.53272083,6.0726742 C9.71280472,6.22093826 9.8932942,6.36920232 10.0741893,6.51746638 C9.89410539,6.66573044 9.71383714,6.81384222 9.53338453,6.96180171 C9.35551297,6.81350719 9.17642463,6.6657609 8.99888492,6.51746638 M4.90109148,7.1447257 C5.08058542,6.99694894 5.26007935,6.84883717 5.43957329,6.70039037 C5.62961268,6.84429909 5.81434246,6.99277635 5.99619622,7.14426884 C5.81493242,7.29685778 5.62961268,7.44560915 5.44023699,7.59052295 C5.2601531,7.44177158 5.08043793,7.2931725 4.90109148,7.1447257 M0.00774316482,7.1894973 L0.549211619,6.74223811 C0.73047542,6.89147679 0.911333627,7.04086776 1.09178624,7.19041101 C0.911702349,7.33964969 0.731434098,7.48873608 0.550981485,7.63767019 C0.369717684,7.48800512 0.188638244,7.33861415 0.00774316482,7.1894973 M1.63967046,7.18904045 C1.82034431,7.04028908 2.00083379,6.89138542 2.18113891,6.74232948 C2.36181276,6.89108085 2.54230224,7.04016725 2.72260737,7.18958867 C2.54252348,7.33882735 2.36225523,7.48773101 2.18180261,7.63629964 C2.00105502,7.48754826 1.82034431,7.33846187 1.63967046,7.18904045 M3.27038097,7.19141608 C3.45168164,7.04266471 3.63231862,6.89290826 3.81350867,6.74415689 C3.99300261,6.89242095 4.17271778,7.04068501 4.35265418,7.18894908 C4.17198033,7.33916238 3.99130649,7.48888837 3.81063264,7.63812705 C3.63054875,7.48943659 3.45046486,7.34053294 3.27038097,7.19141608 M6.54640339,7.19196431 C6.72648728,7.04275608 6.90778795,6.89446156 7.08665506,6.74525334 C7.26673895,6.89400471 7.4470072,7.04245151 7.62745982,7.19059375 C7.44678597,7.33983243 7.26629649,7.48907111 7.08599136,7.63830979 C6.90598122,7.4894975 6.72611856,7.34071568 6.54640339,7.19196431 M8.17534404,7.19050238 C8.35542793,7.04129415 8.5367286,6.89199456 8.71681249,6.74278633 C8.89748634,6.89251232 9.07834454,7.04205557 9.25938711,7.19141608 L8.71791866,7.63867527 C8.53687609,7.48943659 8.35601788,7.34004563 8.17534404,7.19050238 M9.80693948,7.19050238 C9.98702337,7.04129415 10.168324,6.89199456 10.3484079,6.74278633 C10.5284918,6.89202501 10.7087601,7.04111141 10.8892127,7.19004552 C10.7091288,7.3392842 10.5286393,7.4883706 10.3477442,7.63730471 C10.1672916,7.48849243 9.98702337,7.33955832 9.80693948,7.19050238 M0.82376212,7.86299015 C1.00443597,7.71423877 1.18492545,7.56533512 1.36523057,7.41627918 C1.54590442,7.56503055 1.72639391,7.71411695 1.90669903,7.86353837 C1.72661514,8.01277705 1.54634689,8.1616807 1.36589427,8.31024933 C1.18514668,8.16149796 1.00443597,8.01241157 0.82376212,7.86299015 M2.45679558,7.863447 C2.63628952,7.71420832 2.81637341,7.56545695 2.99704725,7.41719289 C3.1777211,7.56545695 3.35798935,7.71420832 3.53785201,7.863447 C3.35776812,8.01219837 3.17768423,8.16195482 2.99760034,8.31070619 C2.81696336,8.16195482 2.63687947,8.01228974 2.45679558,7.863447 M7.35998878,7.86445208 C7.54007267,7.71521339 7.72074652,7.56597471 7.90201032,7.41673603 C8.08268416,7.56646202 8.26354237,7.7157007 8.44458494,7.86445208 C8.26332114,8.01369076 8.08246293,8.16323401 7.90201032,8.31308182 C7.72074652,8.16390406 7.54007267,8.01436081 7.35998878,7.86445208 M8.99125237,7.86445208 C9.17133627,7.71524385 9.35263694,7.56594426 9.53272083,7.41673603 C9.71280472,7.56597471 9.89307297,7.71506111 10.0735256,7.86399522 C9.89344169,8.0132339 9.71295221,8.1623203 9.53205713,8.31125441 C9.35145703,8.1623203 9.17118878,8.01338619 8.99125237,7.86445208 M0.00951303107,8.53556929 C0.189596922,8.3863306 0.370086406,8.23724421 0.550981485,8.0883101 L1.09244994,8.53556929 L0.550981485,8.98282847 C0.37030764,8.83438167 0.189818155,8.68529528 0.00951303107,8.53556929 M1.63967046,8.53693984 C1.82034431,8.38818847 2.00083379,8.23928482 2.18113891,8.09022888 C2.36181276,8.23898025 2.54230224,8.38806665 2.72260737,8.53748807 C2.54252348,8.68672675 2.36225523,8.8356304 2.18180261,8.98419903 C2.00105502,8.83544766 1.82034431,8.68636127 1.63967046,8.53693984 M8.17534404,8.53840177 C8.35601788,8.38867578 8.53687609,8.23913253 8.71791866,8.08977203 C8.89800255,8.23901071 9.0782708,8.3880971 9.25872341,8.53703122 C9.07804957,8.68675721 8.89719136,8.83614817 8.71614879,8.98520411 C8.53547494,8.83645274 8.35520669,8.68751863 8.17534404,8.53840177 M9.80428468,8.53556929 C9.98436857,8.3863306 10.1648581,8.23724421 10.3457531,8.0883101 L10.8895445,8.53748807 C10.7094606,8.68672675 10.5289712,8.83581315 10.3480761,8.98474726 C10.1662223,8.83532584 9.98495853,8.68559984 9.80428468,8.53556929" id="Shape"></path>
            </g>
        </g>
    </g>
</svg>