<?xml version="1.0" encoding="UTF-8"?>
<svg width="15px" height="16px" viewBox="0 0 15 16" version="1.1" xmlns="http://www.w3.org/2000/svg" xmlns:xlink="http://www.w3.org/1999/xlink">
    <!-- Generator: Sketch 48.2 (47327) - http://www.bohemiancoding.com/sketch -->
    <title>Icon</title>
    <desc>Created with Sketch.</desc>
    <defs></defs>
    <g id="06" stroke="none" stroke-width="1" fill="none" fill-rule="evenodd" transform="translate(-30.000000, -214.000000)">
        <g id="Left-Navigation-White" transform="translate(0.000000, -18.500000)" fill="#7F8FA4">
            <g id="Menu" transform="translate(20.000000, 98.500000)">
                <g id="Menu-Items" transform="translate(9.000000, 0.000000)">
                    <g id="Icons-White-/-Location-Icon" transform="translate(1.002000, 134.313028)">
                        <path d="M7.5,4.77272727 C5.99318182,4.77272727 4.77272727,5.99318182 4.77272727,7.5 C4.77272727,9.00681818 5.99318182,10.2272727 7.5,10.2272727 C9.00681818,10.2272727 10.2272727,9.00681818 10.2272727,7.5 C10.2272727,5.99318182 9.00681818,4.77272727 7.5,4.77272727 L7.5,4.77272727 Z M13.5954545,6.81818182 C13.2818182,3.975 11.025,1.71818182 8.18181818,1.40454545 L8.18181818,0 L6.81818182,0 L6.81818182,1.40454545 C3.975,1.71818182 1.71818182,3.975 1.40454545,6.81818182 L0,6.81818182 L0,8.18181818 L1.40454545,8.18181818 C1.71818182,11.025 3.975,13.2818182 6.81818182,13.5954545 L6.81818182,15 L8.18181818,15 L8.18181818,13.5954545 C11.025,13.2818182 13.2818182,11.025 13.5954545,8.18181818 L15,8.18181818 L15,6.81818182 L13.5954545,6.81818182 L13.5954545,6.81818182 Z M7.5,12.2727273 C4.86136364,12.2727273 2.72727273,10.1386364 2.72727273,7.5 C2.72727273,4.86136364 4.86136364,2.72727273 7.5,2.72727273 C10.1386364,2.72727273 12.2727273,4.86136364 12.2727273,7.5 C12.2727273,10.1386364 10.1386364,12.2727273 7.5,12.2727273 L7.5,12.2727273 Z" id="Icon"></path>
                    </g>
                </g>
            </g>
        </g>
    </g>
</svg>