<?xml version="1.0" encoding="UTF-8"?>
<svg width="13px" height="20px" viewBox="0 0 13 20" version="1.1" xmlns="http://www.w3.org/2000/svg" xmlns:xlink="http://www.w3.org/1999/xlink">
    <!-- Generator: Sketch 48.2 (47327) - http://www.bohemiancoding.com/sketch -->
    <title>noun_1362105 (1)</title>
    <desc>Created with Sketch.</desc>
    <defs></defs>
    <g id="Top-Bars-/-#04" stroke="none" stroke-width="1" fill="none" fill-rule="evenodd" transform="translate(-1143.000000, -20.000000)">
        <g id="noun_1362105-(1)" transform="translate(1143.724360, 20.611215)" fill="#FFFFFF" fill-rule="nonzero">
            <path d="M0.160283766,9.61702598 C0.16123557,9.65547885 0.169421083,9.69202812 0.184840305,9.72724486 C0.189789685,9.73904723 0.193596901,9.75046887 0.200449888,9.76131944 C0.224244984,9.80110484 0.254512346,9.83746374 0.297153158,9.86335281 C0.29772424,9.86373353 0.298866405,9.86373353 0.299437487,9.86411425 C0.30019893,9.86449497 0.300389291,9.86544678 0.301150734,9.8658275 L5.96552573,13.1847675 C5.96990403,13.1874325 5.97504377,13.1861 5.97980279,13.1887651 C6.02053999,13.2097047 6.06546514,13.2253143 6.1151493,13.2253143 C6.16483346,13.2253143 6.2097586,13.2097047 6.25087652,13.1880036 C6.25601626,13.1859096 6.26191745,13.1866711 6.26686683,13.184006 L11.830541,9.86449497 C11.8741336,9.83860591 11.9045913,9.80148556 11.9293382,9.76093872 C11.9360008,9.74970743 11.9401888,9.73923759 11.9449478,9.72724486 C11.9605574,9.69183776 11.9687429,9.65547885 11.9700754,9.61702598 C11.9700754,9.60884046 11.9754055,9.60217784 11.9748344,9.59437304 C11.9748344,9.59075619 11.971979,9.5882815 11.9712176,9.58466464 C11.9677911,9.54107203 11.9569405,9.49843122 11.9331454,9.45845546 L6.36928092,0.144293462 C6.36718695,0.140486246 6.3635701,0.13896336 6.36109541,0.135346506 C6.35443278,0.124686303 6.34624727,0.116310429 6.33806175,0.106792391 C6.32778227,0.0947996622 6.31731243,0.0841394592 6.3053197,0.0734792563 C6.29618239,0.0660551863 6.28799687,0.0578696733 6.27828847,0.0517781288 C6.27448126,0.049113078 6.27257765,0.0453058627 6.26877044,0.0430215335 C6.26229817,0.0390239573 6.25525482,0.0390239573 6.24878255,0.0357878243 C6.23583802,0.0289348367 6.22289349,0.0239854567 6.20861643,0.0190360768 C6.19681407,0.0148481399 6.1850117,0.010660203 6.17225753,0.008185513 C6.15969372,0.00533010149 6.14751063,0.00475901919 6.13494682,0.00418793689 C6.12809383,0.00342649382 6.12200228,0 6.1151493,0 C6.10829631,0 6.10296621,0.00342649382 6.09611322,0.00380721535 C6.08393013,0.00494937996 6.07250848,0.00513974072 6.06070612,0.0076144307 C6.0471905,0.0100891207 6.03481705,0.0144674183 6.0214918,0.018845716 C6.00759546,0.0236047352 5.99465093,0.0287444759 5.9817064,0.0355974635 C5.97580521,0.0388335966 5.96914259,0.0388335966 5.9632414,0.0420697296 C5.95981491,0.0441636981 5.95772094,0.0477805526 5.95448481,0.0498745211 C5.94401497,0.0567275087 5.93506801,0.0651033825 5.92516925,0.073669617 C5.91336688,0.0839490985 5.90270668,0.0940382192 5.8924272,0.106030948 C5.88500313,0.115168264 5.87681761,0.123353777 5.87072607,0.133062176 C5.86787066,0.136869392 5.8642538,0.138773 5.86177911,0.142580215 L0.197594477,9.45693257 C0.173037938,9.49690833 0.162187374,9.54050095 0.158380159,9.58485501 C0.157999437,9.58866222 0.155334386,9.59113691 0.154953665,9.59513449 C0.154763304,9.6023682 0.159903045,9.60922118 0.160283766,9.61702598 Z M6.41135065,1.36888428 L10.935655,8.94352958 L6.41135065,6.86821649 L6.41135065,1.36888428 Z M5.8191383,6.86650325 L1.20079572,8.9473368 L5.8191383,1.35289397 L5.8191383,6.86650325 Z M5.8191383,7.51639491 L5.8191383,12.4120931 L1.09533586,9.64462829 L5.8191383,7.51639491 Z M6.41135065,12.4073341 L6.41135065,7.51944068 L11.0432088,9.64462829 L6.41135065,12.4073341 Z" id="Shape"></path>
            <path d="M11.9495165,10.6289838 C11.8556686,10.526189 11.7010957,10.5058204 11.5811684,10.5745406 L6.1151493,13.8017267 L0.651224186,10.5745406 C0.531867984,10.505059 0.377295041,10.526189 0.282305018,10.6289838 C0.187695717,10.7325401 0.177796957,10.8867323 0.258700283,11.0011391 L5.87339112,18.9115808 C5.87776942,18.9176724 5.88500313,18.919576 5.88938143,18.9250964 C5.90099343,18.9391831 5.91260544,18.9515566 5.92612105,18.9631686 C5.93259332,18.9684987 5.93640054,18.9766842 5.94344388,18.9814432 C5.94896435,18.9854408 5.95600769,18.9837275 5.96190888,18.9875348 C5.97142692,18.9930552 5.97961243,19.0010504 5.99008227,19.0061901 C6.0277737,19.0244647 6.06946271,19.0360768 6.11400713,19.0360768 C6.11419749,19.0360768 6.11419749,19.0360768 6.11457821,19.0360768 C6.11457821,19.0360768 6.11457821,19.0360768 6.11495894,19.0360768 C6.11533966,19.0360768 6.11533966,19.0360768 6.11533966,19.0360768 C6.11553002,19.0360768 6.11553002,19.0360768 6.11591074,19.0360768 C6.16045516,19.0360768 6.20195381,19.0242744 6.2398356,19.0061901 C6.25030544,19.0012407 6.25849095,18.9932456 6.26800899,18.9875348 C6.27371982,18.9835372 6.28076316,18.9854408 6.28647399,18.9814432 C6.29351734,18.9768746 6.29732455,18.968689 6.30379682,18.9631686 C6.31731243,18.9513662 6.3291148,18.9391831 6.34034608,18.9250964 C6.34472438,18.919576 6.35214845,18.9176724 6.35633639,18.9115808 L11.9731212,11.0011391 C12.0544052,10.8867323 12.0443161,10.7325401 11.9495165,10.6289838 Z M5.8191383,14.3155104 L5.8191383,17.8109149 L1.54630051,11.7913267 L5.8191383,14.3155104 Z M6.41135065,17.8109149 L6.41135065,14.3155104 L10.6859017,11.7913267 L6.41135065,17.8109149 Z" id="Shape"></path>
        </g>
    </g>
</svg>