<?xml version="1.0" encoding="UTF-8"?>
<svg width="14px" height="17px" viewBox="0 0 14 17" version="1.1" xmlns="http://www.w3.org/2000/svg" xmlns:xlink="http://www.w3.org/1999/xlink">
    <!-- Generator: Sketch 48.2 (47327) - http://www.bohemiancoding.com/sketch -->
    <title>Icon</title>
    <desc>Created with Sketch.</desc>
    <defs></defs>
    <g id="06" stroke="none" stroke-width="1" fill="none" fill-rule="evenodd" transform="translate(-30.000000, -170.000000)">
        <g id="Left-Navigation-White" transform="translate(0.000000, -18.500000)" fill="#748FFC">
            <g id="Menu" transform="translate(20.000000, 98.500000)">
                <g id="Menu-Items" transform="translate(9.000000, 0.000000)">
                    <g id="Icon" transform="translate(1.000000, 90.313028)">
                        <path d="M3.11111111,6.66666667 L10.8888889,6.66666667 L10.8888889,5.11111111 L3.11111111,5.11111111 L3.11111111,6.66666667 Z M3.11111111,9.77777778 L10.8888889,9.77777778 L10.8888889,8.22222222 L3.11111111,8.22222222 L3.11111111,9.77777778 Z M3.11111111,12.8888889 L8.55555556,12.8888889 L8.55555556,11.3333333 L3.11111111,11.3333333 L3.11111111,12.8888889 Z M7,2 C7.42777778,2 7.77777778,2.35 7.77777778,2.77777778 C7.77777778,3.20555556 7.42777778,3.55555556 7,3.55555556 C6.57222222,3.55555556 6.22222222,3.20555556 6.22222222,2.77777778 C6.22222222,2.35 6.57222222,2 7,2 L7,2 Z M12.4444444,2 L9.19333333,2 C8.86666667,1.09777778 8.01111111,0.444444444 7,0.444444444 C5.98888889,0.444444444 5.13333333,1.09777778 4.80666667,2 L1.55555556,2 C0.7,2 0,2.7 0,3.55555556 L0,14.4444444 C0,15.3 0.7,16 1.55555556,16 L12.4444444,16 C13.3,16 14,15.3 14,14.4444444 L14,3.55555556 C14,2.7 13.3,2 12.4444444,2 L12.4444444,2 Z"></path>
                    </g>
                </g>
            </g>
        </g>
    </g>
</svg>